<svg width="145" height="59" viewBox="0 0 145 59" fill="none" xmlns="http://www.w3.org/2000/svg">
	<path d="M143.94 52.8094L143.588 51.9115C142.884 50.1259 140.207 49.6964 133.986 49.8454L7.63194 52.9458C1.41071 53.0949 -0.559305 53.6363 0.144819 55.4322L0.496866 56.3301C1.27933 58.2808 3.56224 58.5547 9.78348 58.4056L136.138 55.3053C142.359 55.1562 144.683 54.6878 143.94 52.8094Z" fill="#E1FC9F"/>
	<path d="M30.4373 25.6183C22.8171 25.3153 12.8941 25.4971 6.24338 25.4668C6.10704 25.4668 5.95554 25.4971 5.81919 25.5425C5.68285 25.6031 5.56166 25.6789 5.45561 25.7697C5.34956 25.8758 5.27381 25.997 5.21321 26.1182C5.15261 26.2545 5.12231 26.3909 5.12231 26.5424V32.7992C5.12231 34.299 7.54625 33.587 8.01589 38.0258C8.12194 39.1469 8.12194 40.2831 8.01589 41.4042C7.57655 45.8582 5.12231 45.2673 5.12231 46.7065V52.9482C5.12231 53.236 5.24351 53.5087 5.45561 53.7208C5.6677 53.9178 5.94039 54.039 6.22824 54.039H26.4227C27.5135 54.039 27.665 52.7361 27.665 51.2211C27.665 50.0698 27.9831 48.2063 26.559 48.0246C24.7562 47.7973 23.4382 47.0095 21.893 45.6006C21.4385 45.1764 21.1355 45.0704 21.9839 44.0402C22.8322 43.0252 22.8171 43.4948 23.3625 43.8433C24.9835 45.1158 26.9529 45.3279 28.4224 45.3734C35.3458 45.4643 40.8754 42.7222 40.9663 35.9806C41.0269 31.6932 38.1031 25.6789 30.4373 25.6183ZM24.9683 37.0108C24.938 37.2229 24.832 37.4198 24.6805 37.5562C24.5138 37.6925 24.3018 37.7531 24.0897 37.738H23.0595C22.8474 37.7531 22.6353 37.6925 22.4686 37.5562C22.302 37.4198 22.196 37.2229 22.1657 37.0108V31.8296C22.196 31.6175 22.302 31.4206 22.4686 31.2842C22.6353 31.1479 22.8474 31.0873 23.0595 31.1024H24.0897C24.3018 31.0873 24.5138 31.1479 24.6805 31.2842C24.8471 31.4206 24.9532 31.6175 24.9683 31.8296V37.0108Z" fill="#1D1D1D"/>
	<path d="M73.6744 43.4647H60.5245C58.1157 43.4192 60.6154 45.9189 58.0702 45.8886C57.1916 45.8886 56.828 45.9189 56.828 44.6463V41.5255C56.828 41.071 56.7219 40.4044 57.949 40.5105C71.6746 41.7527 74.5227 39.7227 74.5227 35.3445C74.5227 30.3602 67.766 27.6484 58.1763 27.6484C46.8292 27.6484 41.8298 31.7691 41.8904 40.8741C41.9359 48.964 46.3444 54.0391 58.1763 54.0391C64.1604 54.0391 74.2955 52.1454 74.2955 44.0706C74.2955 43.9191 74.2349 43.7525 74.1137 43.6465C73.9925 43.5404 73.841 43.4647 73.6744 43.4647ZM56.7371 32.5721C56.7371 31.7388 57.949 31.8752 58.6308 31.8752C58.8429 31.86 59.0398 31.9206 59.2065 32.0418C59.3731 32.1782 59.4792 32.36 59.4943 32.5721V35.5868C59.4943 36.4201 58.2823 36.2837 57.6006 36.2837C57.3885 36.2989 57.1916 36.2383 57.0249 36.1171C56.8583 35.9807 56.7522 35.7989 56.7219 35.5868V32.5721H56.7371Z" fill="#1D1D1D"/>
	<path d="M96.4898 28.8301C96.005 28.8301 95.5202 28.6483 95.1415 28.3301C94.7627 28.012 94.5203 27.5726 94.4446 27.0878C94.3082 26.088 93.8992 25.9971 93.2932 25.9971H81.2038C80.9614 25.9971 80.7341 26.0728 80.5372 26.2243C80.3403 26.3758 80.2039 26.5728 80.1433 26.8C79.5828 28.7089 78.3254 30.345 76.6134 31.3752C76.4619 31.4812 76.3408 31.6176 76.2499 31.7691C76.159 31.9206 76.1287 32.1024 76.1287 32.2842V36.7685C76.1287 38.6773 78.4011 37.1017 78.4617 38.9652C78.4314 39.5711 78.0981 44.7069 78.0527 45.6461C77.6891 53.0998 84.2792 54.039 90.4602 54.039C103.868 54.039 103.822 45.2068 102.974 39.2378C102.959 38.95 102.837 38.6925 102.641 38.4955C102.444 38.2986 102.171 38.1774 101.898 38.1622H96.3534C96.0656 38.1622 95.7929 38.2834 95.5808 38.4804C95.3839 38.6773 95.2626 38.9652 95.2626 39.253V42.5253C95.2626 42.798 95.1566 43.0707 94.9596 43.2677C94.7627 43.4646 94.49 43.5706 94.2173 43.5858C93.3538 43.5858 92.6721 43.7827 92.6569 42.5253V35.7534C92.6569 35.4656 92.763 35.208 92.9599 35.0111C93.1568 34.8142 93.4295 34.7081 93.7022 34.7081H101.732C101.868 34.7081 102.019 34.6778 102.156 34.6324C102.292 34.5718 102.413 34.496 102.519 34.4051C102.625 34.2991 102.701 34.1779 102.762 34.0567C102.822 33.9203 102.853 33.784 102.853 33.6325C102.898 27.2848 103.322 29.1179 96.4898 28.8301Z" fill="#1D1D1D"/>
	<path d="M133.106 36.6468C133.394 36.6317 133.667 36.5105 133.879 36.3135C134.076 36.1166 134.197 35.8287 134.212 35.5409V29.8901C134.212 29.7537 134.182 29.6022 134.121 29.4659C134.061 29.3295 133.985 29.2083 133.879 29.1174C133.773 29.0114 133.652 28.9357 133.515 28.8902C133.379 28.8296 133.243 28.8145 133.091 28.8145H106.14C105.852 28.8145 105.579 28.9357 105.367 29.1326C105.17 29.3295 105.049 29.6174 105.049 29.9052V41.116C105.049 41.4038 105.17 41.6765 105.367 41.8886C105.564 42.0855 105.852 42.2067 106.14 42.2067C106.14 42.2067 109.276 43.3884 111.427 37.1468C111.821 35.9954 112.548 36.2075 113.306 36.5105C113.851 36.7226 113.881 37.2983 113.715 37.8588C112.382 42.4491 110.897 45.6154 106.125 46.1002C105.837 46.1153 105.579 46.2365 105.367 46.4335C105.17 46.6304 105.049 46.9031 105.034 47.191V52.8266C105.034 52.963 105.064 53.1145 105.11 53.2508C105.17 53.3872 105.246 53.5084 105.337 53.6144C105.443 53.7205 105.564 53.7962 105.685 53.8568C105.822 53.9174 105.958 53.9477 106.11 53.9477H133.106C133.243 53.9477 133.394 53.9174 133.53 53.872C133.667 53.8114 133.788 53.7356 133.894 53.6447C134 53.5387 134.076 53.4175 134.136 53.2963C134.197 53.1599 134.227 53.0236 134.227 52.8721V41.6462C134.227 41.3584 134.106 41.0857 133.894 40.8736C133.682 40.6766 133.409 40.5554 133.121 40.5554C133.121 40.5554 129.985 39.3737 127.834 45.6305C127.44 46.7819 126.728 46.5698 125.956 46.2668C125.41 46.0547 125.38 45.479 125.547 44.9185C126.865 40.2827 128.349 37.1165 133.106 36.6468Z" fill="#1D1D1D"/>
	<path d="M17.9541 12.9075C17.9541 17.0888 14.9999 19.7703 11.4852 19.7703C9.40966 19.7703 8.34919 18.9522 7.57655 18.9522C6.83422 18.9522 6.16763 19.6945 5.6677 19.6945C5.3041 19.6945 5.10716 19.4067 5.10716 19.0279V3.78741C5.10716 2.1967 3.12256 3.07538 3.12256 2.06035C3.12256 1.65131 3.5619 1.34832 4.97082 0.696884C6.25853 0.0757491 6.59183 0 6.89482 0C7.25841 0 7.4099 0.333291 7.4099 0.666583V8.54439C7.4099 8.66559 7.5614 8.71104 7.63715 8.62014C8.62187 7.36272 10.1368 6.45374 12.1366 6.45374C15.5604 6.45374 17.9541 9.02918 17.9541 12.9075ZM15.515 13.7256C15.515 10.6199 13.7879 8.22625 11.2731 8.22625C9.28846 8.22625 7.42506 9.69577 7.42506 12.3621V14.2407C7.42506 16.8161 9.15211 18.4068 11.4852 18.4068C13.7122 18.4068 15.515 16.8918 15.515 13.7256Z" fill="#1D1D1D"/>
	<path d="M19.3176 18.9976C19.3176 18.0281 20.9386 18.7704 20.9386 16.6797V3.78741C20.9386 2.1967 19.1206 3.07538 19.1206 2.06035C19.1206 1.65131 19.5599 1.34832 20.9234 0.696884C22.2414 0.0757491 22.4838 0 22.7262 0C23.1353 0 23.2716 0.333291 23.2716 0.893827V16.6646C23.2716 18.7401 24.9229 17.9978 24.9229 18.9825C24.9229 19.2097 24.7714 19.4976 24.3775 19.4976C23.817 19.4976 23.0444 19.4218 22.1202 19.4218C21.2264 19.4218 20.4992 19.4976 19.9387 19.4976C19.4993 19.5127 19.3176 19.2249 19.3176 18.9976Z" fill="#1D1D1D"/>
	<path d="M26.1953 13.2105C26.1953 9.25641 29.1495 6.31738 33.1793 6.31738C37.1182 6.31738 39.8603 9.08977 39.8603 13.0438C39.8603 16.9827 36.8758 19.8763 32.8763 19.8763C28.9526 19.8915 26.1953 17.1191 26.1953 13.2105ZM37.3757 13.9528C37.3757 10.7108 35.4517 7.74145 32.6491 7.74145C30.21 7.74145 28.695 9.69575 28.695 12.2863C28.695 15.4981 30.619 18.4977 33.4217 18.4977C35.8608 18.5128 37.3757 16.5282 37.3757 13.9528Z" fill="#1D1D1D"/>
	<path d="M55.0554 20.2099C55.0554 22.6035 52.283 24.3003 48.1472 24.3003C44.0871 24.3003 41.3147 22.9823 41.3147 21.0431C41.3147 20.0281 41.9964 19.1191 43.1781 18.498C43.269 18.4525 43.269 18.3162 43.163 18.2707C42.3297 17.9072 41.9055 17.2709 41.9055 16.5134C41.9055 15.6196 42.7236 14.8166 43.6023 14.2258C43.678 14.1803 43.678 14.0743 43.6023 14.0288C42.4964 13.3017 41.8298 12.2412 41.8298 10.8929C41.8298 8.45378 43.981 6.39342 47.8745 6.39342C48.2381 6.39342 48.6168 6.40858 48.9653 6.45403C49.0259 6.46918 49.0865 6.42373 49.1016 6.34798C49.4652 4.16643 50.8741 3.10596 51.6467 3.10596C52.3436 3.10596 52.9345 3.3332 53.6465 3.77254C53.9495 3.98463 54.207 4.21188 54.207 4.51487C54.207 4.81786 53.9949 5.07541 53.495 5.07541C52.0709 5.07541 50.6923 5.2269 50.2833 6.57522C50.2681 6.63582 50.2984 6.71157 50.3742 6.72672C52.3588 7.3327 53.5708 8.68102 53.5708 10.5141C53.5708 12.9078 51.465 14.9833 47.5563 14.9833C46.6019 14.9833 45.7384 14.8621 44.9809 14.6348C44.9506 14.6197 44.9052 14.6348 44.8749 14.65C44.4052 14.953 43.9659 15.256 43.9659 15.6953C43.9659 16.1346 44.3749 16.3164 45.3597 16.4073C47.6775 16.6952 50.1924 16.9224 51.0711 17.0285C53.5708 17.2709 55.0554 18.3768 55.0554 20.2099ZM52.783 20.8916C52.783 19.9675 51.9346 19.4221 50.1924 19.2252C48.435 19.0434 46.7686 18.8616 45.087 18.6646C45.0567 18.6646 45.0415 18.6646 45.0112 18.6798C44.2234 19.0888 43.5871 19.8312 43.5871 20.7704C43.5871 22.2854 45.2839 23.0277 48.2684 23.0277C51.0559 23.0277 52.783 21.9521 52.783 20.8916ZM44.2689 10.5747C44.2689 12.4987 45.7838 13.7107 47.8139 13.7107C49.7379 13.7107 51.1317 12.6048 51.1317 10.802C51.1317 8.89312 49.5864 7.666 47.5866 7.666C45.6626 7.666 44.2689 8.80222 44.2689 10.5747Z" fill="#1D1D1D"/>
</svg>
